<svg id="Layer_1" data-name="Layer 1" xmlns="http://www.w3.org/2000/svg" viewBox="0 0 237.43 237.43"><defs><style>.cls-1{fill:#36b2dd;}.cls-1,.cls-2{stroke:#4e54a5;stroke-miterlimit:10;}.cls-1,.cls-2,.cls-4{stroke-width:2px;}.cls-2{fill:#81e183;}.cls-3{fill:#33a3c1;opacity:0.6;}.cls-4{fill:none;stroke:#e6e6e6;stroke-linecap:round;stroke-linejoin:round;}</style></defs><title>Earth</title><circle class="cls-1" cx="118.71" cy="118.71" r="117.71"/><path class="cls-2" d="M42.81,91.21c3.93,3.23,6.85,5.65,8.42,7.09a18.83,18.83,0,0,0,4.63,3.25l.19.1a19,19,0,0,0,8,1.71C80.33,103.7,78.2,113,78.2,113s3.63,9.8,21.12,7.57,27.6,21,27.6,21-3.3,19.78,15.75,37.47,13.82,10.91,19.62,28.09c0,0-3.39,26,15,16.26s12.61-18.63,19.51-44.87c0,0-2.61-7.36,6.86-19.14s-6.82-19.63-6.82-19.63-1.73.51-35.36-18c0,0-5.18-6-26.62,4.4,0,0-3.81,2.72-19.16-11.85,0,0-4.3-6-16.34-8.68S108.08,88,108.08,88s20.17-1.54,24-10.93,3.23-13.1,3.23-13.1-5.78-.93,19.37-8.17c.64-1,1.26-2.1,1.85-3.23,5.07-9.79,5.43-19.81,4.71-27.16-10.16-1.09-41.86-3.2-74,16.43A118,118,0,0,0,42.81,91.21Z" transform="translate(-29.77 -22.69)"/><path class="cls-2" d="M199.35,36.59a35,35,0,0,0,2.82,13.55,36.21,36.21,0,0,0,14.76,16.59,64,64,0,0,0,1.38,16.93c1.31,6,3.05,14.25,8.38,19.86,7.79,8.2,21.27,10.52,34.25,6.44A115.74,115.74,0,0,0,243.75,73.9,117.52,117.52,0,0,0,199.35,36.59Z" transform="translate(-29.77 -22.69)"/><path class="cls-3" d="M148.05,28.87c-28.58,6.49-68.62,46.62-76.56,94.69C63,175,92.16,230.08,144.77,257.9A112.62,112.62,0,0,1,105,250.08,116.57,116.57,0,0,1,34.88,115.4,116.61,116.61,0,0,1,61.69,64.35c24-26.65,53.11-33.86,62.21-36,18.22-4.26,37.24-4.13,37.39-3C161.4,26.23,151.29,28.13,148.05,28.87Z" transform="translate(-29.77 -22.69)"/><line class="cls-4" x1="176.86" y1="89.24" x2="205.91" y2="89.24"/><line class="cls-4" x1="192.86" y1="74.21" x2="209.77" y2="74.21"/><line class="cls-4" x1="89.03" y1="31.99" x2="118.07" y2="31.99"/><line class="cls-4" x1="105.03" y1="16.97" x2="121.94" y2="16.97"/><line class="cls-4" x1="50.39" y1="160.88" x2="89.03" y2="160.88"/><line class="cls-4" x1="44.58" y1="171.21" x2="61.49" y2="171.21"/><line class="cls-4" x1="72.61" y1="94.09" x2="111.26" y2="94.09"/><line class="cls-4" x1="66.81" y1="104.43" x2="83.71" y2="104.43"/><line class="cls-4" x1="91.93" y1="111.19" x2="114.23" y2="111.19"/><line class="cls-4" x1="145.87" y1="189.1" x2="162.77" y2="189.1"/><line class="cls-4" x1="152.67" y1="178.77" x2="174.48" y2="178.77"/><line class="cls-4" x1="170.99" y1="195.86" x2="193.29" y2="195.86"/></svg>