<svg id="Layer_1" data-name="Layer 1" xmlns="http://www.w3.org/2000/svg" viewBox="0 0 239.43 239.43"><defs><style>.cls-1{fill:#c7b299;stroke:#8c6239;stroke-width:4px;}.cls-1,.cls-3{stroke-miterlimit:10;}.cls-2{fill:#ad9c89;}.cls-3{fill:#c69c6d;stroke:#a67c52;stroke-width:0.75px;}.cls-4{fill:#a67c52;}</style></defs><title>Mercury</title><circle class="cls-1" cx="119.71" cy="119.71" r="117.71"/><path class="cls-2" d="M154.25,252.42a109.78,109.78,0,0,1-41.13-3.09,116.16,116.16,0,0,1-45-24.8,114.9,114.9,0,0,1-39.19-81A118.35,118.35,0,0,1,44.32,79.06c4.4-7.65,20.85-35.31,55.71-49.35a111.46,111.46,0,0,1,46.47-7.84c-46.06,17-78.16,58.21-81.61,104.81C60.8,181.84,97.55,235,154.25,252.42Z" transform="translate(-24.29 -17.68)"/><circle class="cls-3" cx="53.73" cy="166.23" r="6.05"/><path class="cls-4" d="M78,177.85A6.06,6.06,0,1,1,78,190a8.58,8.58,0,0,0,0-12.11Z" transform="translate(-24.29 -17.68)"/><circle class="cls-3" cx="133.83" cy="210" r="14.12"/><path class="cls-4" d="M154.57,213.86c9.43-1.51,17.52,5.58,17.72,13.45.17,6.65-5.33,13.22-13.16,14.34a23.23,23.23,0,0,0-4.56-27.79Z" transform="translate(-24.29 -17.68)"/><circle class="cls-3" cx="90.46" cy="38.58" r="14.12"/><path class="cls-4" d="M121.28,43.9A13.76,13.76,0,0,1,120.09,69a23.78,23.78,0,0,0,1.19-25.12Z" transform="translate(-24.29 -17.68)"/><circle class="cls-3" cx="34.23" cy="126.15" r="3.85"/><path class="cls-4" d="M58.51,140a3.85,3.85,0,1,1,0,7.69,5.92,5.92,0,0,0,0-7.69Z" transform="translate(-24.29 -17.68)"/><circle class="cls-3" cx="191.19" cy="59.66" r="3.85"/><path class="cls-4" d="M214,73.81a3.87,3.87,0,1,1,2,7.43,5.76,5.76,0,0,0,.53-4.08A5.69,5.69,0,0,0,214,73.81Z" transform="translate(-24.29 -17.68)"/><circle class="cls-3" cx="95.49" cy="115.69" r="14.12"/><path class="cls-4" d="M121.59,119.25c6.74,0,12.2,6.32,12.2,14.12s-5.46,14.12-12.2,14.12A23.2,23.2,0,0,0,126.27,134,23.52,23.52,0,0,0,121.59,119.25Z" transform="translate(-24.29 -17.68)"/><circle class="cls-3" cx="201.46" cy="88.64" r="14.12"/><path class="cls-4" d="M224.83,92.23c8.65-.34,15.59,6.92,15.12,14.93a14.47,14.47,0,0,1-15.74,13.19,20.59,20.59,0,0,0,.62-28.12Z" transform="translate(-24.29 -17.68)"/><circle class="cls-3" cx="53.54" cy="70.34" r="11.67"/><path class="cls-4" d="M80.42,76.37c4.79.62,8.49,5.52,8.62,11.34s-3.5,11.16-8.38,11.94a18.79,18.79,0,0,0-.24-23.28Z" transform="translate(-24.29 -17.68)"/><circle class="cls-3" cx="30.38" cy="154.56" r="11.67"/><path class="cls-4" d="M55.82,160.58a11.72,11.72,0,0,1,.29,23.28,16.18,16.18,0,0,0-.29-23.28Z" transform="translate(-24.29 -17.68)"/><circle class="cls-3" cx="159.61" cy="145.48" r="11.67"/><path class="cls-4" d="M179.82,152.22a12.75,12.75,0,0,1,9.74.74c.28.15,6.42,3.56,6.37,10.22s-6.39,10-6.78,10.25a12.88,12.88,0,0,1-8.06,1.11c.3-.19,6.2-3.93,6.15-10.91A12.76,12.76,0,0,0,179.82,152.22Z" transform="translate(-24.29 -17.68)"/><circle class="cls-3" cx="155.46" cy="88.71" r="9.98"/><path class="cls-4" d="M178.9,96.14c5.89.12,10.71,4.07,11.22,9.12s-3.59,10-9.5,11.11A13.74,13.74,0,0,0,184.7,106C184.28,100.08,179.69,96.7,178.9,96.14Z" transform="translate(-24.29 -17.68)"/></svg>