<svg id="Layer_1" data-name="Layer 1" xmlns="http://www.w3.org/2000/svg" viewBox="0 0 238.43 238.43"><defs><style>.cls-1{fill:#e0622f;stroke-width:3px;}.cls-1,.cls-3{stroke:#603813;stroke-miterlimit:10;}.cls-2{fill:#b2482b;}.cls-3{fill:#bc4520;stroke-width:2px;}.cls-4{fill:#a83d20;}</style></defs><title>mars</title><circle class="cls-1" cx="119.21" cy="119.21" r="117.71"/><path class="cls-2" d="M148.38,260a116.33,116.33,0,0,1-36.26-4.46,118.2,118.2,0,0,1-68.94-53.87,116.5,116.5,0,0,1-15.27-52A118.35,118.35,0,0,1,43.32,85.3C48.55,76.22,65.24,50,99,36a115.59,115.59,0,0,1,48.87-8.69c-46.91,16.44-80,58.06-84,105.66C59.22,187.68,93.75,240.62,148.38,260Z" transform="translate(-25.27 -24.19)"/><circle class="cls-3" cx="56" cy="76.28" r="15.95"/><path class="cls-4" d="M81.72,85.55C91,86,97.68,94,96.84,102c-.72,6.81-6.74,12.63-14.43,13.19A15.91,15.91,0,0,0,93,102.29C93.79,95.16,89.16,88,81.72,85.55Z" transform="translate(-25.27 -24.19)"/><path class="cls-4" d="M220.89,158.23c-9.27-.4-16-8.42-15.13-16.46.72-6.81,6.74-12.63,14.43-13.19a15.9,15.9,0,0,0-10.58,12.91C208.81,148.62,213.44,155.75,220.89,158.23Z" transform="translate(-25.27 -24.19)"/><circle class="cls-3" cx="194.85" cy="119.21" r="15.95"/><circle class="cls-3" cx="83.19" cy="171.05" r="15.95"/><circle class="cls-3" cx="135.16" cy="30.77" r="10.34"/><circle class="cls-3" cx="177.33" cy="189.5" r="13.87"/><circle class="cls-3" cx="184.49" cy="166.32" r="3.53"/><circle class="cls-3" cx="153.25" cy="41.1" r="3.53"/><circle class="cls-3" cx="206.55" cy="81.98" r="10.25"/><circle class="cls-3" cx="47.62" cy="152.54" r="10.25"/><path class="cls-4" d="M86.71,126.14" transform="translate(-25.27 -24.19)"/><path class="cls-4" d="M108.21,180.42a14.71,14.71,0,0,1,7.87,1.86A15,15,0,0,1,114.31,209a14.29,14.29,0,0,1-5.4,1.11,15.89,15.89,0,0,0,10.57-12.92C120.28,190,115.65,182.9,108.21,180.42Z" transform="translate(-25.27 -24.19)"/><path class="cls-4" d="M71.33,167.54a9.58,9.58,0,0,1,5.7.93,9.27,9.27,0,0,1-1.13,17,8.87,8.87,0,0,1-4.57.29A9.5,9.5,0,0,0,79.2,178,9.64,9.64,0,0,0,71.33,167.54Z" transform="translate(-25.27 -24.19)"/><path class="cls-4" d="M159,45.8a9.68,9.68,0,0,1,5.71.93,9.27,9.27,0,0,1-1.13,17A8.91,8.91,0,0,1,159,64a9.5,9.5,0,0,0,7.88-7.82A9.64,9.64,0,0,0,159,45.8Z" transform="translate(-25.27 -24.19)"/><path class="cls-4" d="M230.67,97a9.66,9.66,0,0,1,5.7.93,9.27,9.27,0,0,1-1.12,17,8.69,8.69,0,0,1-4.06.37,9.64,9.64,0,0,0,7.36-7.9C239.11,102.83,235.79,98.15,230.67,97Z" transform="translate(-25.27 -24.19)"/><path class="cls-4" d="M202,200.75a12.55,12.55,0,0,1,6,1.12,13.11,13.11,0,0,1,7.41,10.95A13.51,13.51,0,0,1,211,223.44a13,13,0,0,1-6.9,3c.49-.26,7-3.95,7.6-11.23C212.17,209.09,208.25,203.12,202,200.75Z" transform="translate(-25.27 -24.19)"/><path class="cls-4" d="M219.34,128.58a15.59,15.59,0,0,1,10.56,3.76c.5.43,5.82,5.28,5,12.71a15.32,15.32,0,0,1-10.08,12.56,14.37,14.37,0,0,1-5.25.8A15.79,15.79,0,0,0,231,145.32C231.8,138.07,227,130.84,219.34,128.58Z" transform="translate(-25.27 -24.19)"/></svg>