<svg id="Layer_1" data-name="Layer 1" xmlns="http://www.w3.org/2000/svg" viewBox="0 0 238.43 238.43"><defs><style>.cls-1{fill:#8174d1;stroke-miterlimit:10;stroke-width:3px;}.cls-1,.cls-3{stroke:#5b477a;}.cls-2{fill:#6363b7;}.cls-3{fill:none;stroke-linecap:round;stroke-linejoin:round;stroke-width:4px;}</style></defs><title>neptune</title><circle class="cls-1" cx="119.21" cy="119.21" r="117.71"/><path class="cls-2" d="M140.15,260.73c-63.55-2-114.39-55.43-113.21-118.86C28.12,78.62,80.6,27.17,144,27.29c-46.13,22.56-75.15,69.6-74.19,120.2C70.72,194.87,97.76,238.31,140.15,260.73Z" transform="translate(-24.79 -24.79)"/><line class="cls-3" x1="31.57" y1="69.71" x2="91.4" y2="69.71"/><line class="cls-3" x1="119.21" y1="157.22" x2="193.86" y2="157.22"/><line class="cls-3" x1="34.7" y1="190.12" x2="94.39" y2="190.12"/><line class="cls-3" x1="172.92" y1="195.36" x2="207.32" y2="195.36"/><line class="cls-3" x1="155.1" y1="41.76" x2="189.5" y2="41.76"/><line class="cls-3" x1="175.17" y1="137.77" x2="203.84" y2="137.77"/><line class="cls-3" x1="36.23" y1="87.66" x2="64.9" y2="87.66"/><line class="cls-3" x1="71.21" y1="51.76" x2="97.39" y2="51.76"/><line class="cls-3" x1="207.34" y1="63.73" x2="221.55" y2="63.73"/><line class="cls-3" x1="77.19" y1="200.83" x2="91.4" y2="200.83"/></svg>