<svg id="Layer_1" data-name="Layer 1" xmlns="http://www.w3.org/2000/svg" viewBox="0 0 280.56 237.43"><defs><style>.cls-1{fill:#ffbc67;stroke-width:2px;}.cls-1,.cls-3,.cls-4,.cls-5{stroke:#736357;}.cls-1,.cls-4,.cls-5{stroke-miterlimit:10;}.cls-2{fill:#ce9352;}.cls-3{fill:#eeb8ae;stroke-linecap:round;stroke-linejoin:round;}.cls-3,.cls-5{stroke-width:4px;}.cls-4,.cls-5{fill:none;}.cls-4{stroke-width:5px;}</style></defs><title>saturn</title><circle class="cls-1" cx="139.75" cy="118.71" r="117.71"/><path class="cls-2" d="M140.15,260.73c-63.55-2-114.39-55.43-113.21-118.86C28.12,78.62,80.6,27.17,144,27.29c-46.13,22.56-75.15,69.6-74.19,120.2C70.72,194.87,97.76,238.31,140.15,260.73Z" transform="translate(-4.25 -25.29)"/><line class="cls-3" x1="52.11" y1="69.21" x2="111.94" y2="69.21"/><line class="cls-3" x1="177.08" y1="117.72" x2="214.4" y2="117.72"/><line class="cls-3" x1="55.24" y1="179.62" x2="114.93" y2="179.62"/><line class="cls-3" x1="193.46" y1="194.86" x2="227.87" y2="194.86"/><line class="cls-3" x1="195.71" y1="98.27" x2="224.38" y2="98.27"/><line class="cls-3" x1="91.75" y1="51.26" x2="117.93" y2="51.26"/><line class="cls-3" x1="227.88" y1="63.23" x2="242.09" y2="63.23"/><path class="cls-4" d="M63.39,155.05" transform="translate(-4.25 -25.29)"/><path class="cls-4" d="M45.23,169.75" transform="translate(-4.25 -25.29)"/><path class="cls-4" d="M37,177.4" transform="translate(-4.25 -25.29)"/><path class="cls-5" d="M240.94,78.86c3-2.68,33.58-7.68,40.43,5.36,10.74,20.42-40.23,68.34-113.84,107S24.37,240,10.76,228.9C0,220.15,9.2,192.82,30.68,176.05" transform="translate(-4.25 -25.29)"/><path class="cls-4" d="M171.78,94.12" transform="translate(-4.25 -25.29)"/><path class="cls-4" d="M94.1,134.07" transform="translate(-4.25 -25.29)"/><path class="cls-4" d="M81.09,142.49" transform="translate(-4.25 -25.29)"/><path class="cls-4" d="M68,151.64" transform="translate(-4.25 -25.29)"/></svg>