<svg id="Layer_1" data-name="Layer 1" xmlns="http://www.w3.org/2000/svg" viewBox="0 0 238.43 238.43"><defs><style>.cls-1{fill:#92d1c8;stroke-width:3px;}.cls-1,.cls-3,.cls-5,.cls-6{stroke:#034f50;stroke-miterlimit:10;}.cls-2,.cls-6{fill:#50a5a6;}.cls-3,.cls-5{fill:#cff5ee;}.cls-3{stroke-width:2px;}.cls-4,.cls-7{fill:#034f50;}.cls-7{opacity:0.79;}</style></defs><title>Uranus</title><circle class="cls-1" cx="119.21" cy="119.21" r="117.71"/><path class="cls-2" d="M256.83,169.3a116.66,116.66,0,0,1-19.78,39.41,116.88,116.88,0,0,1-121.86,41.63,117,117,0,0,1-82.3-79.21Z" transform="translate(-25.38 -18.17)"/><path class="cls-3" d="M260.53,149.74,29.21,154.68c-1.78-13.81-2.93-39.46,9.64-66.48A113.12,113.12,0,0,1,52,66.7l187.11,2.24a123,123,0,0,1,21.47,80.8Z" transform="translate(-25.38 -18.17)"/><path class="cls-4" d="M260.73,126.34l-232.44,5a99.42,99.42,0,0,1,4.89-29.29l221.68-2.53c.82,2.23,1.6,4.6,2.31,7.11A101.22,101.22,0,0,1,260.73,126.34Z" transform="translate(-25.38 -18.17)"/><path class="cls-5" d="M218,228.15,77.86,234.36c-1.65-1.14-3.34-2.36-5.06-3.69-2.59-2-5-4-7.11-5.93l163.84-7.22A39.45,39.45,0,0,1,218,228.15Z" transform="translate(-25.38 -18.17)"/><path class="cls-6" d="M81.75,38.28,204.37,36q3.39,2.46,6.86,5.1c4.14,3.16,8.1,6.33,11.86,9.47L61,55.06c2.21-2.25,4.68-4.58,7.41-6.92A117.31,117.31,0,0,1,81.75,38.28Z" transform="translate(-25.38 -18.17)"/><path class="cls-4" d="M243.44,73.4,46.8,73.92c.7-1.11,1.46-2.27,2.3-3.46C50.05,69.11,51,67.85,52,66.7H238.48a22.15,22.15,0,0,1,2,1.78A11.49,11.49,0,0,1,243.44,73.4Z" transform="translate(-25.38 -18.17)"/><path class="cls-3" d="M241.53,204,51.3,208.77a63.55,63.55,0,0,1-5.77-8.16,64.81,64.81,0,0,1-5.11-10.68l210.34-2.26a79.25,79.25,0,0,1-4.94,9.83C244.4,199.89,243,202.05,241.53,204Z" transform="translate(-25.38 -18.17)"/><path class="cls-7" d="M144.54,254.18c-7.44,0-54.24-.65-88.36-38.89-28.32-31.74-29.32-68.55-29.3-77.77,0-8,.95-47.92,32.75-80.93,34.06-35.36,77.67-35.94,85.25-35.92C138.43,25.06,87,61.34,82.54,128.08,77.34,206.09,141.28,251.93,144.54,254.18Z" transform="translate(-25.38 -18.17)"/></svg>